<svg width="1000" height="600" xmlns="http://www.w3.org/2000/svg" preserveAspectRatio="none"><path fill="#F9FAFB" d="M0 0h1000v600H0z"/><path d="M0 66h0c56.65-.874 113.3-1.748 171 0s116.447 6.117 174 7 113.91-1.722 165-1 96.91 4.77 151 4c54.09-.77 116.447-6.361 180-9 63.553-2.639 128.3-2.325 155-2 26.7.325 15.35.663 44 1" fill="none" stroke="#bcb5ff" stroke-width="4" stroke-linecap="round"/><path d="M0 133h0c56.025 5.737 112.05 11.474 170 9s117.824-13.158 172-17c54.176-3.842 102.655-.842 157-1 54.345-.158 114.556-3.475 167-1s97.12 10.743 158 12c60.88 1.257 137.966-4.498 170-6 32.034-1.502 19.017 1.25 46 4" fill="none" stroke="#6856ff" stroke-width="4" stroke-linecap="round"/><path d="M0 200h0c53.462 2.407 106.924 4.815 163 6 56.076 1.185 114.767 1.148 174-2 59.233-3.148 119.007-9.407 172-11 52.993-1.593 99.204 1.48 151 4 51.796 2.52 109.176 4.486 173 5 63.824.514 134.093-.425 163-1 28.907-.575 16.454-.788 44-1" fill="none" stroke="#402aff" stroke-width="4" stroke-linecap="round"/><path d="M0 266h0c52.15-4.668 104.3-9.336 159-7 54.7 2.336 111.953 11.675 170 12 58.047.325 116.888-8.363 171-8 54.112.363 103.494 9.778 157 12 53.506 2.222 111.136-2.748 175-6 63.864-3.252 133.961-4.786 163-5 29.039-.214 17.02.893 45 2" fill="none" stroke="#aaa0ff" stroke-width="4" stroke-linecap="round"/><path d="M0 333h0c55.379-5.56 110.757-11.12 168-9 57.243 2.12 116.35 11.922 170 12 53.65.078 101.846-9.568 154-12 52.154-2.432 108.268 2.348 166 7s117.082 9.176 180 7c62.918-2.176 129.405-11.05 157-13 27.595-1.95 16.297 3.025 45 8" fill="none" stroke="#988dff" stroke-width="4" stroke-linecap="round"/><path d="M0 400h0c50.635-2.362 101.27-4.724 154-7 52.73-2.276 107.553-4.465 167-3 59.447 1.465 123.518 6.586 182 10 58.482 3.414 111.377 5.121 162 6 50.623.879 98.975.929 163 1 64.025.071 143.721.163 175-1 31.279-1.163 14.14-3.582 37-6" fill="none" stroke="#ccc6ff" stroke-width="4" stroke-linecap="round"/><path d="M0 466h0c60.555-2.164 121.11-4.328 174-2 52.89 2.328 98.116 9.15 150 8 51.884-1.15 110.428-10.27 171-11 60.572-.73 123.174 6.928 181 8 57.826 1.072 110.876-4.442 169-4 58.124.442 121.321 6.84 148 8 26.679 1.16 16.84-2.92 47-7" fill="none" stroke="#d1cbff" stroke-width="4" stroke-linecap="round"/><path d="M0 533h0c60.735 1.866 121.47 3.732 177 3 55.53-.732 105.856-4.062 157-8 51.144-3.938 103.108-8.483 162-5 58.892 3.483 124.713 14.996 176 20 51.287 5.004 88.039 3.501 150 0s149.132-9 183-11c33.868-2 14.434-.5 35 1" fill="none" stroke="#1e04ff" stroke-width="4" stroke-linecap="round"/></svg>